<?xml version="1.0" encoding="utf-8"?>
<!-- Generator: Adobe Illustrator 21.1.0, SVG Export Plug-In . SVG Version: 6.00 Build 0)  -->
<svg version="1.1" id="Capa_1" xmlns="http://www.w3.org/2000/svg" xmlns:xlink="http://www.w3.org/1999/xlink" x="0px" y="0px"
	 viewBox="0 0 25.5 19.2" style="enable-background:new 0 0 25.5 19.2;" xml:space="preserve">
<style type="text/css">
	.st0{fill:#999999;}
	.st1{fill:#C90C50;}
	.st2{fill:#FC8735;}
</style>
<path class="st0" d="M-19.9,13.3c-0.3,0-0.6,0.1-0.8,0.4c-0.2,0.2-0.3,0.5-0.3,0.9c0,0.3,0.1,0.6,0.3,0.9c0.2,0.2,0.5,0.4,0.8,0.4
	c0.3,0,0.6-0.1,0.8-0.4c0.2-0.2,0.3-0.5,0.3-0.9c0-0.3-0.1-0.6-0.3-0.9C-19.3,13.4-19.6,13.3-19.9,13.3 M-19.9,12.8
	c0.5,0,0.9-0.4,0.9-1v-5c0-0.5-0.4-1-0.9-1c-0.5,0-0.9,0.4-0.9,1v5C-20.8,12.3-20.4,12.8-19.9,12.8 M-11.9,17.5h-15.9
	c-0.3,0-0.6-0.2-0.7-0.4c-0.1-0.3-0.1-0.6,0-0.9l8-14.5c0.1-0.3,0.4-0.4,0.7-0.4c0.3,0,0.6,0.2,0.7,0.4l7.9,14.4c0,0,0,0,0,0.1
	c0.1,0.1,0.1,0.3,0.1,0.5C-11.1,17.1-11.5,17.5-11.9,17.5 M-9.9,15.2l-7.9-14.4C-18.2,0-19-0.5-19.9-0.5c-0.9,0-1.7,0.5-2.1,1.3
	l-8,14.5c-0.4,0.8-0.4,1.8,0,2.6c0.4,0.8,1.2,1.3,2.1,1.3h15.9c1.3,0,2.4-1.1,2.4-2.6C-9.5,16.1-9.6,15.6-9.9,15.2"/>
<g>
	<path class="st0" d="M35.2,21.2h2.5c0-0.1,0.1-0.2,0.1-0.3c0,0,0.1-0.1,0.1-0.1c0.1-0.1,0.3-0.2,0.4-0.3l0-0.1c0-0.1,0-0.2,0-0.3
		c0,0,0,0,0.1-0.1c0,0,0.1,0,0.1,0c0,0,0.1,0,0.2,0l0.1,0l0.3-0.9L38.9,19c0-0.2,0-0.7,0.2-1.2l-0.5-0.6c0.5-0.3,0.9-0.7,1.2-0.9
		l0.1,0c0,0,0.1,0,0.2-0.1c-0.4,0-0.8-0.2-1.1-0.3c-0.4-0.2-0.8-0.5-1-0.8c-0.1-0.1-0.2-0.4-0.3-0.8c0-0.3,0-0.7,0.1-1.1l0-0.2
		c-0.2,0.1-0.3,0.2-0.5,0.4c0,0,0.4-1.2,0.7-1.1c0.1,0,0.2,0,0.3,0.1c0.1-0.2,0.2-0.4,0.3-0.6c0.1-0.1,0.2-0.2,0.2-0.3
		c0,0,0.1-0.1,0.1-0.1c0,0,0.5,0.2,0.5,0.3c0,0,0.1-0.8,0.5-1.4c-0.1,0.6,0.1,1.4,0.3,1.9l0.1,0c0-0.5,0.1-1,0.2-1.3
		c0.1-0.3,0.6-0.8,1.1-1.2c0.2-0.1,0.4-0.2,0.6-0.3c-0.1,0.1-0.3,0.3-0.4,0.5c-0.3,0.5-0.6,1-0.8,1.5c-0.1,0.1-0.1,0.3-0.2,0.5
		L40.6,12l-0.1,0.1c0.1-0.1,0.2-0.3,0.4-0.4c0.2-0.2,0.3-0.4,0.5-0.5c0.1-0.1,0.2-0.2,0.4-0.2c0.1,0.1,0.3,0.3,0.4,0.6l0.1,0.2
		l0.1,0l0.1,0c0,0,0.1,0,0.1,0c0,0,0.1,0.1,0.2,0.5l0.1,0c0,0,0,0,0.1,0c0,0,0.1,0,0.1,0.1c0,0,0.1,0.1,0.1,0.2l0,0.1
		c0,0.2,0,0.5,0,0.6c0,0-0.2-0.3-0.4-0.4c0.1,0.1,0.1,0.2,0.1,0.3c0,0.1,0.1,0.3,0.1,0.5c0.1,1.1-0.4,1.6-0.4,1.6
		c-0.4,0.6-1.2,1-2.2,1c0,0,0.1,0,0.2,0l0.1,0c0.3,0.3,0.6,0.6,1.2,0.9l-0.5,0.6c0.1,0.5,0.2,1,0.2,1.2l-0.2,0.1l0.3,0.9l0.1,0
		c0.1,0,0.2,0,0.2,0c0,0,0.1,0,0.1,0c0,0,0,0,0,0.1c0,0.1,0,0.2,0,0.3l0,0.1c0.2,0.1,0.3,0.2,0.4,0.3c0,0,0.1,0.1,0.1,0.1
		c0.1,0.1,0.1,0.2,0.1,0.3h2.6c0.4,0,0.7-0.3,0.7-0.7v-1.9c0-0.4-0.3-0.7-0.7-0.7h-0.7c-0.2,0-0.4-0.2-0.4-0.3v-5
		c0-0.2,0.2-0.3,0.4-0.3h0.7c0.4,0,0.7-0.3,0.7-0.7V9.6c0-0.4-0.3-0.7-0.7-0.7H35.2c-0.4,0-0.7,0.3-0.7,0.7v1.9
		c0,0.4,0.3,0.7,0.7,0.7h0.7c0.2,0,0.4,0.2,0.4,0.3v5c0,0.2-0.2,0.3-0.4,0.3h-0.7c-0.4,0-0.7,0.3-0.7,0.7v1.9
		C34.5,20.9,34.8,21.2,35.2,21.2"/>
	<path class="st0" d="M40.4,8.2c2.8,0,5.1-2.2,5.1-5c0-2.8-2.3-5-5.1-5c-2.8,0-5.1,2.2-5.1,5C35.2,6,37.5,8.2,40.4,8.2"/>
</g>
<g>
	<path class="st1" d="M-40.8,16.6c-0.4,0.5-1.1,0.8-1.7,0.8c-0.8,0-1.6-0.4-2-1.1l-1.8-3c-0.4-0.6-1.1-1-1.8-1h-3.5
		c-0.7,0-1.4,0.4-1.8,1l-1.8,3c-0.4,0.7-1.2,1.1-2,1.1c-0.6,0-1.3-0.3-1.7-0.8c-0.4-0.5-0.6-1.2-0.6-1.9l0.7-5.7
		c0.1-0.3,0.1-0.7,0.1-1l0-0.3c0.2-1.9,1.8-3.3,3.6-3.3c0.8,0,1.7,0.3,2.3,0.8c0.8,0.6,1.7,1,2.6,1h0.3c0.9,0,1.8-0.3,2.6-1
		c0.6-0.5,1.5-0.8,2.3-0.8c1.9,0,3.4,1.4,3.6,3.3l0,0.4c0,0.3,0.1,0.7,0.1,1l0.7,5.7C-40.1,15.4-40.3,16.1-40.8,16.6 M-39.4,14.6
		l-0.7-5.8c-0.1-0.3-0.1-0.7-0.1-1c0-0.1,0-0.2,0-0.4c-0.3-2.3-2.2-4.1-4.5-4.1c-1,0-2,0.4-2.8,1c-0.6,0.5-1.3,0.8-2.1,0.8h-0.3
		c-0.7,0-1.5-0.3-2.1-0.8c-0.8-0.7-1.8-1-2.8-1c-2.3,0-4.2,1.8-4.5,4.1l0,0.3c0,0.3-0.1,0.7-0.1,1l-0.7,5.7
		c-0.1,0.9,0.2,1.9,0.8,2.6c0.6,0.7,1.4,1.1,2.3,1.1c1.1,0,2.1-0.6,2.7-1.6l1.8-3c0.2-0.4,0.6-0.6,1.1-0.6h3.5
		c0.4,0,0.8,0.2,1.1,0.6l1.8,3c0.6,1,1.6,1.6,2.7,1.6c0.9,0,1.7-0.4,2.3-1.1C-39.5,16.4-39.3,15.5-39.4,14.6"/>
	<path class="st1" d="M-44.5,8.3c-0.4,0-0.8-0.4-0.8-0.8c0-0.5,0.4-0.8,0.8-0.8c0.4,0,0.8,0.4,0.8,0.8C-43.7,7.9-44,8.3-44.5,8.3
		 M-44.5,5.8c-0.9,0-1.6,0.8-1.6,1.7s0.7,1.7,1.6,1.7c0.9,0,1.6-0.8,1.6-1.7S-43.6,5.8-44.5,5.8"/>
	<path class="st1" d="M-55,8.3c-0.4,0-0.8-0.4-0.8-0.8c0-0.5,0.4-0.8,0.8-0.8c0.4,0,0.8,0.4,0.8,0.8C-54.2,7.9-54.6,8.3-55,8.3
		 M-55,5.8c-0.9,0-1.6,0.8-1.6,1.7s0.7,1.7,1.6,1.7c0.9,0,1.6-0.8,1.6-1.7S-54.1,5.8-55,5.8"/>
</g>
<g>
	<path class="st2" d="M2.1,4.3h21.3c1,0,1.9-0.9,1.9-2s-0.8-2-1.9-2H2.1c-1,0-1.9,0.9-1.9,2S1.1,4.3,2.1,4.3z"/>
	<path class="st2" d="M23.4,7.5H2.1c-1,0-1.9,0.9-1.9,2s0.8,2,1.9,2h21.3c1,0,1.9-0.9,1.9-2S24.4,7.5,23.4,7.5z"/>
	<path class="st2" d="M23.4,14.8H2.1c-1,0-1.9,0.9-1.9,2s0.8,2,1.9,2h21.3c1,0,1.9-0.9,1.9-2S24.4,14.8,23.4,14.8z"/>
</g>
</svg>
