<?xml version="1.0" encoding="utf-8"?>
<!-- Generator: Adobe Illustrator 21.1.0, SVG Export Plug-In . SVG Version: 6.00 Build 0)  -->
<svg version="1.1" id="Capa_1" xmlns="http://www.w3.org/2000/svg" xmlns:xlink="http://www.w3.org/1999/xlink" x="0px" y="0px"
	 viewBox="0 0 31 31" style="enable-background:new 0 0 31 31;" xml:space="preserve">
<style type="text/css">
	.st0{fill:#FC8735;}
</style>
<g>
	<path class="st0" d="M17.7,12.7c-0.6-0.3-1.3-0.5-2-0.5c-0.7,0-1.4,0.2-1.9,0.5c-0.6,0.3-1,0.8-1.4,1.3c-0.3,0.6-0.5,1.2-0.5,1.9
		c0,0.7,0.2,1.4,0.5,2c0.3,0.6,0.8,1.1,1.4,1.4c0.6,0.3,1.2,0.5,2,0.5c0.7,0,1.4-0.2,2-0.5c0.6-0.3,1.1-0.8,1.5-1.4
		c0.4-0.6,0.5-1.2,0.5-2c0-0.7-0.2-1.4-0.5-1.9C18.8,13.5,18.3,13,17.7,12.7z"/>
	<path class="st0" d="M15.8,1.1C7.7,1.1,1.2,7.6,1.2,15.7c0,8.1,6.6,14.6,14.6,14.6s14.6-6.6,14.6-14.6C30.5,7.6,23.9,1.1,15.8,1.1z
		 M23.4,23.7L19.8,26l-1.7-2.4c-0.7,0.2-1.5,0.3-2.2,0.3c-1.4,0-2.7-0.4-4-1.1c-1.2-0.7-2.2-1.7-3-2.9c-0.7-1.2-1.1-2.5-1.1-3.9
		s0.4-2.7,1.1-3.9c0.7-1.2,1.7-2.2,3-2.9c1.2-0.7,2.6-1.1,4-1.1c1.4,0,2.7,0.4,3.9,1.1c1.2,0.7,2.2,1.7,2.9,2.9s1.1,2.5,1.1,3.9
		c0,1-0.2,2-0.6,2.9c-0.4,0.9-0.9,1.8-1.6,2.5L23.4,23.7z"/>
</g>
</svg>
