<?xml version="1.0" encoding="utf-8"?>
<!-- Generator: Adobe Illustrator 21.1.0, SVG Export Plug-In . SVG Version: 6.00 Build 0)  -->
<svg version="1.1" id="Capa_1" xmlns="http://www.w3.org/2000/svg" xmlns:xlink="http://www.w3.org/1999/xlink" x="0px" y="0px"
	 viewBox="0 0 31 31" style="enable-background:new 0 0 31 31;" xml:space="preserve">
<style type="text/css">
	.st0{fill:#FC8735;}
</style>
<g>
	<path class="st0" d="M15.5,0.9C7.4,0.9,0.9,7.4,0.9,15.5c0,8.1,6.6,14.6,14.6,14.6s14.6-6.6,14.6-14.6C30.1,7.4,23.6,0.9,15.5,0.9z
		 M22.3,19.7c-0.5,1-1.1,1.8-2,2.4c-0.8,0.7-1.8,1.1-2.8,1.3c-0.5,0.1-1,0.2-1.5,0.2c-1.2,0-2.3-0.3-3.4-0.8s-2-1.3-2.8-2.2
		c-0.8-1-1.3-2-1.5-3.2c-0.1-0.5-0.1-1-0.1-1.5c0-1.2,0.3-2.3,0.8-3.4c0.5-1.1,1.2-2,2.2-2.8c0.9-0.8,2-1.3,3.2-1.5
		C14.9,8,15.4,8,16,8c0.9,0,1.9,0.1,2.7,0.4s1.6,0.7,2.2,1.2l-2.2,3.4c-0.3-0.3-0.7-0.5-1.2-0.7c-0.5-0.2-1-0.2-1.5-0.2
		c-0.3,0-0.6,0-0.9,0.1c-0.8,0.2-1.4,0.6-1.9,1.3c-0.5,0.7-0.7,1.4-0.7,2.2c0,0.2,0,0.4,0.1,0.7c0.2,0.8,0.6,1.5,1.2,2.1
		c0.6,0.6,1.3,0.8,2.1,0.8c0.2,0,0.4,0,0.6-0.1c0.5-0.1,0.9-0.3,1.3-0.6c0.4-0.3,0.7-0.6,0.8-0.9L15,16.9l0.8-3.7l6.8,1.4
		c0.3,0.6,0.4,1.4,0.4,2.1C23.1,17.7,22.8,18.7,22.3,19.7z"/>
</g>
</svg>
