<?xml version="1.0" encoding="utf-8"?>
<!-- Generator: Adobe Illustrator 21.1.0, SVG Export Plug-In . SVG Version: 6.00 Build 0)  -->
<svg version="1.1" id="Capa_1" xmlns="http://www.w3.org/2000/svg" xmlns:xlink="http://www.w3.org/1999/xlink" x="0px" y="0px"
	 viewBox="0 0 49.7 46.3" style="enable-background:new 0 0 49.7 46.3;" xml:space="preserve">
<style type="text/css">
	.st0{fill:#FFFFFF;}
</style>
<g>
	<path class="st0" d="M34.5,17.3c-0.2,0-0.3,0-0.4,0.1c-0.2,0.1-0.4,0.3-0.6,0.4c-0.3,0.2-0.6,0.3-0.6,0.3c-0.2,0.1-0.3,0.1-0.4,0.2
		c-0.2,0.1-0.4,0.1-0.5,0.2l-6,5.8c0,0,0.1,0.1,0.1,0.1l5.2,5c-0.3,0.3-0.5,0.5-0.5,0.5c-0.3,0.2-0.7,0.3-1,0.3
		c-1.4,0-2.6-1.3-2.6-1.3l-3-2.9l-0.7-0.7l-0.7,5.6c0.1,0,0.2,0.1,0.2,0.1c0,0,0.3,0.2,0.3,0.2c0.1,0,0.4,0.2,0.4,0.2
		c0.1,0.1,0.2,0.1,0.4,0.2c0.3,0.1,0.5,0.2,0.7,0.2c0.3,0.1,0.6,0.1,0.9,0.2c0,0,0.1,0,0.3,0c0.3,0,0.6,0.1,0.9,0.1
		c0.2,0,0.4,0,0.6,0c0.2,0,0.4,0,0.6,0c0.2,0,0.3,0,0.5-0.1c0.1,0,0.2,0,0.3-0.1c0.4-0.1,0.7-0.2,1.1-0.3c0.2-0.1,0.4-0.2,0.5-0.2
		c0.2-0.1,0.4-0.2,0.5-0.3c0.1,0,0.4-0.2,0.7-0.4c0.3-0.2,0.6-0.4,0.8-0.6c0.2-0.2,0.4-0.4,0.8-0.8c0-0.1,0.3-0.4,0.4-0.6L35,17.8
		c0-0.1,0-0.2-0.1-0.4C34.8,17.4,34.6,17.3,34.5,17.3z"/>
	<path class="st0" d="M23.5,18.7c0.2,0.1,0.3,0.3,0.4,0.5c0.1,0.2,0.1,0.6,0.1,1l-0.4,2.9l4.6-4.4c-0.1,0-0.1,0-0.1,0
		c-0.6-0.1-1.1-0.3-1.4-0.4c-0.5-0.2-0.9-0.4-1.2-0.6c-0.3-0.2-0.5-0.3-0.8-0.5c-0.3-0.1-0.7-0.3-1.1-0.4c-0.7-0.2-1.5-0.4-2.4-0.4
		c-0.8,0-1.4,0.1-2.1,0.2c-0.6,0.1-1,0.3-1.6,0.6c0,0-0.5,0.2-1.1,0.7L14.7,30c-0.1,0.4,0.3,0.7,0.6,0.6c0,0,0.2-0.1,0.3-0.1
		c0.3-0.1,0.6-0.2,0.9-0.3c1.1-0.3,2.3-0.4,3.5-0.2c0,0,0.1,0,0.2,0l1.5-11.5h0.7c0.1,0,0.1,0,0.2,0c0,0,0.1,0,0.1,0
		c0.1,0,0.2,0,0.3,0C23.1,18.5,23.3,18.6,23.5,18.7z"/>
	<path class="st0" d="M32.1,0.5H17.6c0,0-17.1,0-17.1,17.1v11.2c0,0,0,17.1,17.1,17.1h14.5c0,0,17.1,0,17.1-17.1V17.6
		C49.2,17.6,49.2,0.5,32.1,0.5z M24.8,40.5c-9.4,0-17-7.3-17-16.4c0-9,7.6-16.4,17-16.4c9.4,0,17,7.3,17,16.4
		C41.8,33.2,34.2,40.5,24.8,40.5z"/>
</g>
</svg>
