<?xml version="1.0" encoding="utf-8"?>
<!-- Generator: Adobe Illustrator 21.1.0, SVG Export Plug-In . SVG Version: 6.00 Build 0)  -->
<svg version="1.1" id="Capa_1" xmlns="http://www.w3.org/2000/svg" xmlns:xlink="http://www.w3.org/1999/xlink" x="0px" y="0px"
	 viewBox="0 0 21.8 23.8" style="enable-background:new 0 0 21.8 23.8;" xml:space="preserve">
<style type="text/css">
	.st0{fill:#C90C50;}
	.st1{fill:#999999;}
</style>
<path class="st0" d="M-19.2,15.5c-0.3,0-0.6,0.1-0.8,0.4c-0.2,0.2-0.3,0.5-0.3,0.9c0,0.3,0.1,0.6,0.3,0.9c0.2,0.2,0.5,0.4,0.8,0.4
	c0.3,0,0.6-0.1,0.8-0.4c0.2-0.2,0.3-0.5,0.3-0.9c0-0.3-0.1-0.6-0.3-0.9C-18.6,15.6-18.9,15.5-19.2,15.5 M-19.2,14.9
	c0.5,0,0.9-0.4,0.9-1V9c0-0.5-0.4-1-0.9-1c-0.5,0-0.9,0.4-0.9,1v5C-20.1,14.5-19.7,14.9-19.2,14.9 M-11.2,19.7h-15.9
	c-0.3,0-0.6-0.2-0.7-0.4c-0.1-0.3-0.1-0.6,0-0.9l8-14.5c0.1-0.3,0.4-0.4,0.7-0.4c0.3,0,0.6,0.2,0.7,0.4l7.9,14.4c0,0,0,0,0,0.1
	c0.1,0.1,0.1,0.3,0.1,0.5C-10.4,19.3-10.8,19.7-11.2,19.7 M-9.2,17.4L-17.1,3c-0.4-0.8-1.2-1.3-2.1-1.3c-0.9,0-1.7,0.5-2.1,1.3
	l-8,14.5c-0.4,0.8-0.4,1.8,0,2.6c0.4,0.8,1.2,1.3,2.1,1.3h15.9c1.3,0,2.4-1.1,2.4-2.6C-8.8,18.3-8.9,17.8-9.2,17.4"/>
<g>
	<path class="st0" d="M35.9,23.3h2.5c0-0.1,0.1-0.2,0.1-0.3c0,0,0.1-0.1,0.1-0.1c0.1-0.1,0.3-0.2,0.4-0.3l0-0.1c0-0.1,0-0.2,0-0.3
		c0,0,0,0,0.1-0.1c0,0,0.1,0,0.1,0c0,0,0.1,0,0.2,0l0.1,0l0.3-0.9l-0.2-0.1c0-0.2,0-0.7,0.2-1.2l-0.5-0.6c0.5-0.3,0.9-0.7,1.2-0.9
		l0.1,0c0,0,0.1,0,0.2-0.1c-0.4,0-0.8-0.2-1.1-0.3c-0.4-0.2-0.8-0.5-1-0.8c-0.1-0.1-0.2-0.4-0.3-0.8c0-0.3,0-0.7,0.1-1.1l0-0.2
		c-0.2,0.1-0.3,0.2-0.5,0.4c0,0,0.4-1.2,0.7-1.1c0.1,0,0.2,0,0.3,0.1c0.1-0.2,0.2-0.4,0.3-0.6c0.1-0.1,0.2-0.2,0.2-0.3
		c0,0,0.1-0.1,0.1-0.1c0,0,0.5,0.2,0.5,0.3c0,0,0.1-0.8,0.5-1.4c-0.1,0.6,0.1,1.4,0.3,1.9l0.1,0c0-0.5,0.1-1,0.2-1.3
		c0.1-0.3,0.6-0.8,1.1-1.2c0.2-0.1,0.4-0.2,0.6-0.3c-0.1,0.1-0.3,0.3-0.4,0.5c-0.3,0.5-0.6,1-0.8,1.5c-0.1,0.1-0.1,0.3-0.2,0.5
		l-0.1,0.2l-0.1,0.1c0.1-0.1,0.2-0.3,0.4-0.4c0.2-0.2,0.3-0.4,0.5-0.5c0.1-0.1,0.2-0.2,0.4-0.2c0.1,0.1,0.3,0.3,0.4,0.6l0.1,0.2
		l0.1,0l0.1,0c0,0,0.1,0,0.1,0c0,0,0.1,0.1,0.2,0.5l0.1,0c0,0,0,0,0.1,0c0,0,0.1,0,0.1,0.1c0,0,0.1,0.1,0.1,0.2l0,0.1
		c0,0.2,0,0.5,0,0.6c0,0-0.2-0.3-0.4-0.4c0.1,0.1,0.1,0.2,0.1,0.3c0,0.1,0.1,0.3,0.1,0.5c0.1,1.1-0.4,1.6-0.4,1.6
		c-0.4,0.6-1.2,1-2.2,1c0,0,0.1,0,0.2,0l0.1,0c0.3,0.3,0.6,0.6,1.2,0.9L42.1,20c0.1,0.5,0.2,1,0.2,1.2l-0.2,0.1l0.3,0.9l0.1,0
		c0.1,0,0.2,0,0.2,0c0,0,0.1,0,0.1,0c0,0,0,0,0,0.1c0,0.1,0,0.2,0,0.3l0,0.1c0.2,0.1,0.3,0.2,0.4,0.3c0,0,0.1,0.1,0.1,0.1
		c0.1,0.1,0.1,0.2,0.1,0.3h2.6c0.4,0,0.7-0.3,0.7-0.7v-1.9c0-0.4-0.3-0.7-0.7-0.7h-0.7c-0.2,0-0.4-0.2-0.4-0.3v-5
		c0-0.2,0.2-0.3,0.4-0.3h0.7c0.4,0,0.7-0.3,0.7-0.7v-1.9c0-0.4-0.3-0.7-0.7-0.7H35.9c-0.4,0-0.7,0.3-0.7,0.7v1.9
		c0,0.4,0.3,0.7,0.7,0.7h0.7c0.2,0,0.4,0.2,0.4,0.3v5c0,0.2-0.2,0.3-0.4,0.3h-0.7c-0.4,0-0.7,0.3-0.7,0.7v1.9
		C35.2,23,35.5,23.3,35.9,23.3"/>
	<path class="st0" d="M41,10.4c2.8,0,5.1-2.2,5.1-5c0-2.8-2.3-5-5.1-5c-2.8,0-5.1,2.2-5.1,5C35.9,8.2,38.2,10.4,41,10.4"/>
</g>
<g>
	<path class="st1" d="M19.9,18.7c-0.4,0.5-1.1,0.8-1.7,0.8c-0.8,0-1.6-0.4-2-1.1l-1.8-3c-0.4-0.6-1.1-1-1.8-1H9.1
		c-0.7,0-1.4,0.4-1.8,1l-1.8,3c-0.4,0.7-1.2,1.1-2,1.1c-0.6,0-1.3-0.3-1.7-0.8c-0.4-0.5-0.6-1.2-0.6-1.9l0.7-5.7
		c0.1-0.3,0.1-0.7,0.1-1l0-0.3C2.5,7.8,4,6.4,5.9,6.4c0.8,0,1.7,0.3,2.3,0.8c0.8,0.6,1.7,1,2.6,1h0.3c0.9,0,1.8-0.3,2.6-1
		c0.6-0.5,1.5-0.8,2.3-0.8c1.9,0,3.4,1.4,3.6,3.3l0,0.4c0,0.3,0.1,0.7,0.1,1l0.7,5.7C20.5,17.5,20.3,18.2,19.9,18.7 M21.3,16.8
		L20.6,11c-0.1-0.3-0.1-0.7-0.1-1c0-0.1,0-0.2,0-0.4c-0.3-2.3-2.2-4.1-4.5-4.1c-1,0-2,0.4-2.8,1c-0.6,0.5-1.3,0.8-2.1,0.8h-0.3
		c-0.7,0-1.5-0.3-2.1-0.8c-0.8-0.7-1.8-1-2.8-1c-2.3,0-4.2,1.8-4.5,4.1l0,0.3c0,0.3-0.1,0.7-0.1,1l-0.7,5.7
		c-0.1,0.9,0.2,1.9,0.8,2.6c0.6,0.7,1.4,1.1,2.3,1.1c1.1,0,2.1-0.6,2.7-1.6l1.8-3c0.2-0.4,0.6-0.6,1.1-0.6h3.5
		c0.4,0,0.8,0.2,1.1,0.6l1.8,3c0.6,1,1.6,1.6,2.7,1.6c0.9,0,1.7-0.4,2.3-1.1C21.1,18.6,21.4,17.7,21.3,16.8"/>
	<path class="st1" d="M16.2,10.4c-0.4,0-0.8-0.4-0.8-0.8c0-0.5,0.4-0.8,0.8-0.8c0.4,0,0.8,0.4,0.8,0.8C17,10.1,16.6,10.4,16.2,10.4
		 M16.2,7.9c-0.9,0-1.6,0.8-1.6,1.7s0.7,1.7,1.6,1.7c0.9,0,1.6-0.8,1.6-1.7S17.1,7.9,16.2,7.9"/>
	<path class="st1" d="M5.6,10.4c-0.4,0-0.8-0.4-0.8-0.8c0-0.5,0.4-0.8,0.8-0.8c0.4,0,0.8,0.4,0.8,0.8C6.4,10.1,6.1,10.4,5.6,10.4
		 M5.6,7.9C4.7,7.9,4,8.7,4,9.6s0.7,1.7,1.6,1.7c0.9,0,1.6-0.8,1.6-1.7S6.5,7.9,5.6,7.9"/>
</g>
</svg>
