<?xml version="1.0" encoding="utf-8"?>
<!-- Generator: Adobe Illustrator 21.1.0, SVG Export Plug-In . SVG Version: 6.00 Build 0)  -->
<svg version="1.1" id="Capa_1" xmlns="http://www.w3.org/2000/svg" xmlns:xlink="http://www.w3.org/1999/xlink" x="0px" y="0px"
	 viewBox="0 0 31 31" style="enable-background:new 0 0 31 31;" xml:space="preserve">
<style type="text/css">
	.st0{fill:#FC8735;}
</style>
<path class="st0" d="M13.6,3l-2,0.5l-1-0.6c0,0,0.5-0.7,1-0.8l0.8-0.1l0.8,0.1L13.6,3z M18.6,1.8l-1.4,1.1L15.9,3l-0.6-0.4l0.9-0.5
	l1.5-0.8L18.6,1.8z M16,21.3l1.1-1.9L16.8,19l-1.3-0.2l-0.6-1.1l-2.3-0.4c0,0-0.2-0.3-0.2-0.4c-0.2-0.5-0.7-1.4-0.7-1.4l0,1
	l-0.2,0.2L9,13.5L9.2,12L8.4,9.9L7.3,8.8l-4,0.6L2.6,8.6c0,0,0.1-0.2,0.2-0.5c0.5-0.8,1-1.5,1.5-2.2c0.8-0.3,2.1-0.7,2.1-0.7
	l3.7-0.8L12,4.8l1.5-0.3l0.8-1H17l1.3-0.4l1.1-1.3L21.7,2c0.6,0.3,1.2,0.6,1.8,1l-0.3,0.5l-0.6,1.1l-3.9-1l0,0.8l1.9,1.7v0.4
	l-0.4,0.2l-1.7-0.4V5.4L17.3,5L17,6.9H16l-0.2,0.2c0,0,0.2,0.8,0.2,0.8C16,8,17.2,8.2,17.2,8.2l0.4-1.7l2.8,0.6l2.5,3.2l0.2,0.6
	h-1.5l-4.2,3.2L17,15.2h-0.8l-1-0.5L14,15.2l0.3,1.2l0.5-0.6l0.9,0l-0.1,1.1l0.7,0.2l0.7,0.8l1-0.4l3.2,0.6l1.1,0.6l1.7,1.5l1.9,1.1
	l-1.3,2.8l-2.3,1.5l-0.4,1.7l-2.5,1.7c0,0-0.2,0.5-0.3,0.7c-0.6,0.1-1.2,0.2-1.8,0.3l0.2-3.8l0.4-0.8L16,21.3z M30.5,15.4
	c0-8.2-6.7-14.9-14.9-14.9c-8,0-14.6,6.4-14.9,14.4c0,0.1,0,0.3,0,0.4c0,0,0,0.1,0,0.1c0,0,0,0,0,0c0,0,0,0,0,0
	c0,8.2,6.7,14.9,14.9,14.9c0,0,0,0,0.1,0c0,0,0,0,0,0c0,0,0,0,0,0c0.1,0,0.2,0,0.2,0C23.9,30.2,30.5,23.5,30.5,15.4"/>
</svg>
