<?xml version="1.0" encoding="utf-8"?>
<!-- Generator: Adobe Illustrator 21.1.0, SVG Export Plug-In . SVG Version: 6.00 Build 0)  -->
<svg version="1.1" id="Capa_1" xmlns="http://www.w3.org/2000/svg" xmlns:xlink="http://www.w3.org/1999/xlink" x="0px" y="0px"
	 viewBox="0 0 31 31" style="enable-background:new 0 0 31 31;" xml:space="preserve">
<style type="text/css">
	.st0{fill:#FC8735;}
	.st1{clip-path:url(#SVGID_2_);fill:#C90C50;}
</style>
<g>
	<path class="st0" d="M18.7-25.8c-0.6-0.3-1.3-0.5-2-0.5s-1.4,0.2-1.9,0.5c-0.6,0.3-1,0.8-1.4,1.3c-0.3,0.6-0.5,1.2-0.5,1.9
		c0,0.7,0.2,1.4,0.5,2s0.8,1.1,1.4,1.4c0.6,0.3,1.2,0.5,2,0.5c0.7,0,1.4-0.2,2-0.5s1.1-0.8,1.5-1.4s0.5-1.2,0.5-2
		c0-0.7-0.2-1.4-0.5-1.9C19.8-25,19.3-25.5,18.7-25.8z"/>
	<path class="st0" d="M16.8-37.4c-8.1,0-14.6,6.5-14.6,14.6S8.8-8.2,16.8-8.2s14.6-6.6,14.6-14.6C31.5-30.9,24.9-37.4,16.8-37.4z
		 M24.4-14.8l-3.6,2.3l-1.7-2.4c-0.7,0.2-1.5,0.3-2.2,0.3c-1.4,0-2.7-0.4-4-1.1c-1.2-0.7-2.2-1.7-3-2.9c-0.7-1.2-1.1-2.5-1.1-3.9
		s0.4-2.7,1.1-3.9s1.7-2.2,3-2.9c1.2-0.7,2.6-1.1,4-1.1c1.4,0,2.7,0.4,3.9,1.1s2.2,1.7,2.9,2.9s1.1,2.5,1.1,3.9c0,1-0.2,2-0.6,2.9
		s-0.9,1.8-1.6,2.5L24.4-14.8z"/>
</g>
<g>
	<defs>
		<rect id="SVGID_1_" x="0.3" y="0.8" width="30.5" height="29.4"/>
	</defs>
	<clipPath id="SVGID_2_">
		<use xlink:href="#SVGID_1_"  style="overflow:visible;"/>
	</clipPath>
	<path class="st1" d="M6.4,20.8L7.8,9.8c0.5-0.4,1-0.6,1-0.6C9.3,9,9.7,8.9,10.2,8.7c0.6-0.1,1.2-0.2,1.9-0.2c0.8,0,1.5,0.1,2.2,0.3
		c0.4,0.1,0.7,0.3,1,0.4c0.3,0.1,0.5,0.3,0.7,0.4c0.3,0.2,0.6,0.4,1.1,0.5c0.3,0.1,0.7,0.3,1.3,0.4c0,0,0,0,0.1,0l-4.1,4l0.3-2.6
		c0.1-0.4,0-0.7-0.1-0.9c-0.1-0.2-0.2-0.3-0.4-0.4c-0.1-0.1-0.3-0.2-0.5-0.2c-0.1,0-0.2,0-0.3,0c0,0-0.1,0-0.1,0c0,0-0.1,0-0.1,0
		l-0.6,0l-1.3,10.4c-0.1,0-0.1,0-0.1,0c-1.1-0.2-2.2-0.1-3.2,0.2c-0.3,0.1-0.5,0.2-0.8,0.3c-0.1,0-0.2,0.1-0.2,0.1
		C6.7,21.4,6.4,21.2,6.4,20.8 M22.3,10.3c0.1,0,0.2-0.1,0.4-0.1c0,0,0.2-0.1,0.5-0.3c0.2-0.1,0.4-0.2,0.6-0.3c0.1,0,0.2-0.1,0.3-0.1
		c0.1,0,0.2,0.1,0.3,0.1c0.1,0.1,0.1,0.2,0.1,0.3l-1.2,9.5c-0.1,0.1-0.3,0.5-0.4,0.5c-0.3,0.4-0.5,0.6-0.7,0.7
		c-0.2,0.2-0.5,0.4-0.7,0.6c-0.3,0.2-0.6,0.4-0.6,0.4c-0.2,0.1-0.3,0.2-0.5,0.2c-0.1,0.1-0.3,0.1-0.5,0.2c-0.3,0.1-0.7,0.2-1,0.3
		c-0.1,0-0.2,0-0.3,0.1c-0.1,0-0.3,0-0.4,0.1c-0.2,0-0.3,0-0.5,0c-0.2,0-0.4,0-0.5,0c-0.3,0-0.6,0-0.9-0.1c-0.2,0-0.3,0-0.3,0
		c-0.3-0.1-0.6-0.1-0.8-0.2c-0.2-0.1-0.4-0.1-0.7-0.2c-0.1,0-0.2-0.1-0.3-0.1c0,0-0.3-0.1-0.4-0.2c0,0-0.3-0.1-0.3-0.2
		c0,0-0.1,0-0.1-0.1l0.6-5.1l0.7,0.6l2.7,2.6c0,0,1.1,1.2,2.4,1.2c0.3,0,0.6-0.1,0.9-0.2c0,0,0.3-0.2,0.5-0.4l-4.7-4.5
		c0,0-0.1,0-0.1-0.1l5.4-5.2C22,10.4,22.2,10.3,22.3,10.3 M0.3,15.5c0,8.1,6.8,14.7,15.2,14.7c8.4,0,15.2-6.6,15.2-14.7
		S23.9,0.8,15.5,0.8C7.1,0.8,0.3,7.4,0.3,15.5"/>
</g>
</svg>
